<?xml version="1.0" encoding="utf-8"?>
<!-- Generator: Adobe Illustrator 20.1.0, SVG Export Plug-In . SVG Version: 6.00 Build 0)  -->
<svg version="1.1" id="Layer_1" xmlns="http://www.w3.org/2000/svg" xmlns:xlink="http://www.w3.org/1999/xlink" x="0px" y="0px"
	 viewBox="0 0 240 263" style="enable-background:new 0 0 240 263;" xml:space="preserve">
<style type="text/css">
	.st0{fill:none;stroke:#FFFFFF;stroke-miterlimit:10;}
	.st1{fill:#FFFFFF;}
</style>
<g>
	<path d="M229.2,99.9c-1.1-2.8-3.2-5.4-6.3-6c-9.5-2.3-19,1.1-27.8,4.4c6.9-22.4,1.2-47.8-13.9-65.6c2.8-3.1,5.7-6,8.7-8.8
		c2.6,2.8,5.2,5.6,7.9,8.3c0.3-5.5-0.6-11.2,0.6-16.6c1.8-2.5,4.2-4.6,6.4-6.8c-1.9-2.4-3.8-4.7-5.9-7c-2.5,2.2-4.5,5.1-7.6,6.5
		c-5.3,0.7-10.6,0-15.9,0.5c2.4,3.1,4.9,6,7.4,9c-2.8,2.9-5.7,5.7-8.7,8.3C161.1,15.1,144.1,8.9,127,9.8c-14.9,0.9-29.3,7-40.9,16.3
		c-3-3.2-8.2-5.9-7.7-11c-0.1-4.2,0.1-8.4-0.2-12.6c-2.8,2.4-5.4,5.1-8,7.7c-2.9-2.9-5.9-5.7-9-8.4c-2,2.3-3.8,4.6-5.6,7
		c2.5,2.6,5,5.1,7.5,7.6c-2.4,3-4.8,5.9-7.2,8.8c5.2,0.4,10.5-0.2,15.7,0.5c3.1,1.3,5,4.4,7.4,6.6c-4.6,7.4-10,14.6-12.7,23
		c-3,9.7-4.9,19.9-3.4,30.1c-13.1,0.9-25.6,5.9-36.7,12.7c-7,4.2-14.3,8.1-20.1,13.9c-3.7,4.7,0.1,10.8,3.9,14.1
		c2.8-1.5,5.5-2.9,8.4-4.2c-5.6,20.2-13.9,39.8-16.6,60.7c-0.4,4.3,0.6,8.9,3,12.5c3.6,4.5,10,4.1,15.2,4.2
		c12.2,0.4,23.3-5.2,34.7-8.5c3.3,4,6.9,8.6,12.4,9.3c4.3,0.8,7.9-2.1,11-4.6c5.2,6.6,14.2,8.8,22.2,7c-5.6,7.9-12.7,14.5-18.7,22
		c-5.8,7.3-12.6,14.1-16.4,22.8c-2.1,4.1,0.1,9.6,4.4,11.2c2.6,0.9,6.1,3.1,8.3,0.4c2.9-3.3,4.2-7.7,6.9-11.2
		c8.9-11.4,18.8-21.9,28.5-32.6c4.5-5.4,10-9.8,14.5-15.2c2.4,4.6,4.4,9.5,7.5,13.7c1.7,2.6,4.8,3.9,7.8,4.3
		c6.3,0,11.9-3.6,16.1-8.1c-2.9-6.9-5.7-13.8-6.8-21.2c-0.4-3.3-1.8-6.9-0.8-10.2c4.8-6.8,12.1-11.2,18-16.9
		c7.9-7.5,16.7-14,24.4-21.7c3.6-3.4,7.5-6.4,11.1-9.8c7.3-6.7,16.5-11.5,22-20C228.8,107.1,230.9,103.3,229.2,99.9z M75.6,43.7
		c2.4-4,5.6-7.5,8.5-11.1c-3.8-3.5-7-7.8-11.2-10.8c-3.3-0.5-6.7-0.2-10-0.2c1.7-1.7,3.5-3.2,5.3-4.8c-2.9-2.9-6.1-5.6-9.1-8.5
		c0.9-0.4,1.8-0.9,2.8-1.3c2.8,2.5,5.5,5,8.3,7.5c1.5-1.5,2.9-2.9,4.4-4.4c0,3.3-0.4,6.6,0.3,9.8c3.5,3.9,7.7,7.1,11.4,10.8
		c19.5-18.9,51-21.8,74.8-9.7c5.1,2.5,9.5,6,14,9.5c4.5-4,8.5-8.5,12.9-12.7c-1.7-1.7-3.3-3.5-4.9-5.2c3.3,0,6.6,0.3,9.8-0.2
		c2.3-1.5,4.1-3.6,6.2-5.5c0.5,0.4,1.6,1.1,2.1,1.5c-1.9,2.1-4,3.9-5.7,6.2c-0.9,3.2-0.3,6.6-0.5,9.9c-1.7-1.5-3.3-3-5-4.5
		c-4.7,4.2-9.3,8.5-13.8,12.8c10,10.1,16.8,23.4,18.5,37.6c1,9,0.2,18.3-2.6,26.9c-1.2,4.6-6.5,6.4-8,10.8c-1.7,2.6,0.5,6-1.7,8.4
		c-7.8,10.4-18.7,18.4-31.1,22.6c-0.3-1.3-0.5-2.6-0.8-4c13.9-5.2,26-15.3,33.1-28.5c4-7.2,6.3-15.2,7.5-23.3
		c-6.5,5.8-15,8.6-23.3,10.6c-12.4,2.8-25.1,3.7-37.8,3.8c-14.8-0.1-29.7-1.5-43.9-5.7c-5.9-1.7-11.5-4.5-16.5-8.1
		c0.8,9.8,5,18.8,9.7,27.2c-1.1,0.4-2.2,0.8-3.3,1.1c-2-3.5-4-7-5.3-10.8c-1-3-0.1-6.1-0.7-9.1c-1.1-2.7-3.2-5.1-3.4-8.2
		C65.4,70.1,68.2,55.6,75.6,43.7z M165.3,135.8c-4.3,4.8-9.3,9-14.2,13.2c0-2.2,0.1-4.5,0.1-6.7
		C155.9,140.2,160.5,137.8,165.3,135.8z M67.6,103.1c1.5,3.7,3.1,7.4,5.1,10.8c-5.2,4-11,7.4-15.5,12.2c-3.1,3.1-2.5,9.1,1.4,11.2
		c1.7,0.7,3.6,0.9,5.4,1.3c-1.5,6.7-3.3,13.3-5.1,20c-0.7,2.7-1.7,5.4-4,7.1c-6.4,4.9-13.8,8.8-21.8,10.5c1.4-10.1,5-19.8,9.4-28.9
		c2.3-5.5,4.9-10.8,8-15.9c3.6-6.7,7.2-13.4,11.7-19.5C64.1,109.2,66,106.2,67.6,103.1z M222.4,108.4c-3.1,3.8-7.2,6.7-10.9,10
		c-7.6,6-14.6,12.8-22,19.1c-10.4,9.2-21,18.4-31.3,27.8c-4,3.7-8.4,7-11.9,11.2c-0.9,5.4,0.9,10.7,2,15.9
		c1.1,5.7,3.2,11.1,4.8,16.6c-3.5,1.9-7.5,4.7-11.6,3.5c-6.6-5.3-9-13.9-11.4-21.7c-8.7,7.8-16.4,16.7-24.3,25.2
		c-6.7,7.6-13.6,15.1-20,23c-4,5.1-8.6,9.9-11,16c-2.3-0.5-4.5-1.8-5.5-4c0.3-3.4,2.8-6.1,4.6-8.9c16.2-21.4,34.7-40.8,52.2-61
		c-3-7.8-2.8-16.5-6.5-24.1c-2.6,0.6-6.8,0.9-7,4.3c-0.8,7.3-5.5,13.3-8.7,19.7c-1.7,3-3.6,6-3.6,9.6c6-2.7,8.1-9.4,12.1-14.1
		c1.3-0.3,2.5-0.6,3.8-0.8c0.6,7.4-4.2,13.6-9.8,17.9c-3.8,2.9-8.6,5.3-13.5,4.5c-3.7-0.5-8.3-1.3-10-5c-1.9-5.7-0.9-12,1.7-17.3
		c1.8-3.8,4.1-7.8,3-12.2c-2.7,0-6.8-1.1-8.2,2c-3.9,8.2-5.8,17.3-7,26.3c0,3.4-4.5,4.8-7,2.9c-4.5-1.9-6.4-6.5-7.5-11
		c-8.9,4.8-18.8,6.8-28.4,9.9c-6.6,1-14,2.5-20.2-0.9c-3.2-3.1-2.9-8.4-2.5-12.5c3.6-15.8,8.2-31.5,13.3-46.9
		c1.5-5.9,4.5-11.4,4.7-17.5c-5.2-0.8-9.8,2-13.9,4.7c-0.6-2.1-2-4.6,0-6.4c9.4-8.8,21.4-14,33-19c5.8-2.1,11.8-4,18-3.9
		c2.4-0.3,4.6,2,3.5,4.4C62,106,53.9,114.1,49,124c-4,7.9-8.5,15.6-12.3,23.7c-3.2,8.8-6.8,17.5-8.6,26.7c-0.3,2.1-1.2,5.2,1.3,6.3
		c2.7,1.9,6.1,0.5,8.9-0.4c7.1-2.7,13.9-6.4,20.1-10.9c1.8-1.5,4.2-2.9,4.5-5.5c1.6-7.3,3-14.7,5.2-21.8c1.1-4.1,3.2-8.1,2.1-12.4
		c-2.8,1.1-5.5,2.5-8.3,3.6c-3-0.9-0.4-4.1,0.7-5.7c12-10.2,26.8-17.7,42.6-19.3c7.5-0.5,15.2-0.4,22.3,2.2c3,1.1,4.2,4.6,4.3,7.6
		c-0.1,5-2.7,9.5-4.9,13.9c-2.6,5.1-6.7,9.3-11.3,12.7c-5.8,4.1-11,9-17.6,11.8c3.4-0.1,6.7,0.1,10.1,0.5c5.5-8.3,13-15.2,21.4-20.4
		c4.3-2.3,9.6-5,14.4-2.6c2,1.7,2,4.6,2.2,7c0.1,6.4-0.1,12.8,0,19.2c15-13.3,29.3-27.4,44.2-40.8c2-1.6,2.6-4.2,3.1-6.6
		c-1.9-0.1-3.8-0.1-5.8-0.2c0.5-5,5.1-8,9.4-9.5c8.5-3.2,18-7.2,27.1-3.9C224.7,102.4,224.5,105.8,222.4,108.4z M119,172
		c-1.3-0.3-2.5-0.6-3.8-0.9c0.6-1.8,1.3-3.7,1.9-5.5C117.8,167.7,118.4,169.8,119,172z"/>
	<path class="st0" d="M70,92.2c0.6,3-0.3,6.2,0.7,9.1c1.2,3.8,3.3,7.3,5.3,10.8c1.1-0.4,2.2-0.8,3.3-1.1c-4.8-8.4-8.9-17.5-9.7-27.2
		c5,3.6,10.6,6.4,16.5,8.1c14.2,4.2,29.1,5.6,43.9,5.7c12.7-0.1,25.4-1,37.8-3.8c8.3-2.1,16.7-4.9,23.3-10.6
		c-1.2,8.1-3.5,16.2-7.5,23.3c-7.1,13.1-19.1,23.3-33.1,28.5c0.3,1.3,0.5,2.6,0.8,4c12.3-4.2,23.3-12.1,31.1-22.6
		c2.2-2.3,0-5.8,1.7-8.4c1.6-4.4,6.8-6.2,8-10.8c2.8-8.7,3.6-17.9,2.6-26.9c-1.7-14.2-8.5-27.5-18.5-37.6c4.5-4.4,9.1-8.6,13.8-12.8
		c1.6,1.5,3.3,3.1,5,4.5c0.2-3.3-0.4-6.7,0.5-9.9c1.7-2.3,3.8-4.1,5.7-6.2c-0.5-0.4-1.6-1.1-2.1-1.5c-2,1.9-3.9,3.9-6.2,5.5
		c-3.2,0.5-6.6,0.2-9.8,0.2c1.6,1.8,3.3,3.5,4.9,5.2c-4.3,4.2-8.4,8.6-12.9,12.7c-4.5-3.4-8.9-7-14-9.5
		c-23.8-12.1-55.3-9.2-74.8,9.7c-3.7-3.7-7.9-6.9-11.4-10.8c-0.8-3.2-0.3-6.6-0.3-9.8c-1.5,1.5-2.9,2.9-4.4,4.4
		c-2.8-2.5-5.5-5-8.3-7.5c-0.9,0.4-1.9,0.9-2.8,1.3c3,2.9,6.1,5.6,9.1,8.5c-1.8,1.6-3.5,3.2-5.3,4.8c3.3,0.1,6.7-0.2,10,0.2
		c4.2,3,7.5,7.2,11.2,10.8c-2.9,3.7-6.1,7.1-8.5,11.1c-7.4,12-10.2,26.4-9,40.4C66.9,87.1,68.9,89.5,70,92.2z M181.6,84.6
		c-7.6,5.2-16.8,7.3-25.8,8.9c-12.5,1.9-25.2,2.4-37.8,1.5c-11.5-0.8-23.1-2.6-33.7-7.3c-4.2-1.9-9.2-4.8-9.9-9.8
		c0.2-5.8,6.2-8.7,10.8-10.7c8.5-3.2,17.5-5.6,26.6-6.3c4.9,3.3,8.7,7.9,12.6,12.2c-1.4,0.1-2.8,0.3-4.2,0.4c0,2.7,0,5.3,0,8
		c6.6,0,13.2-0.1,19.8,0c0.1-2.6,0.1-5.2,0.2-7.9c-1.5-0.2-3-0.3-4.5-0.5c4-4.3,8.3-8.4,12.4-12.6c9.3,1.3,18.7,3.1,27.4,6.7
		c3.8,1.9,8.3,3.9,10,8.2C186.9,79.1,184.4,82.6,181.6,84.6z M115.7,60.7c9.8-1.3,19.6-1,29.4-0.1c-3.9,4-7.7,8.1-11.8,11.8
		c-1.6,1.6-4.7,1.7-6.3-0.2C123.1,68.5,119.3,64.6,115.7,60.7z M191,73c-11.1-9.8-26.5-11.7-40.5-14.5c7.6-7.8,15.6-15.2,23.5-22.7
		C183.3,46,189.9,59,191,73z M132,16.8c14.9,0.2,28.9,7.1,40,16.7c-4.8,5.3-10.1,10.2-15.1,15.4c-3.4,3.1-6.2,6.8-10,9.5
		c-4.3,0.4-8.6-0.4-12.9-0.6c-6.4-0.5-12.7,0.6-19,0.7c-2,0.2-3.3-1.6-4.6-2.8c-6.1-6.2-12.2-12.5-18.5-18.5
		c-1.1-1.2-2.5-2.3-2.9-3.9C100.6,22.8,116.2,16.1,132,16.8z M86.4,35.8c8,7.4,15.8,15,23.5,22.7c-13.9,2.7-28.8,5-40.3,14
		C70.6,58.6,77.4,46,86.4,35.8z"/>
	<path d="M110.3,55.6c1.3,1.2,2.6,3,4.6,2.8c6.3-0.1,12.6-1.2,19-0.7c4.3,0.2,8.6,0.9,12.9,0.6c3.8-2.7,6.6-6.4,10-9.5
		c5-5.2,10.3-10,15.1-15.4c-11.1-9.6-25.1-16.5-40-16.7c-15.8-0.6-31.4,6-43,16.5c0.4,1.6,1.8,2.7,2.9,3.9
		C98.1,43.2,104.2,49.4,110.3,55.6z"/>
	<path d="M86.4,35.8c-9,10.2-15.7,22.9-16.8,36.6c11.5-9,26.4-11.3,40.3-14C102.1,50.7,94.3,43.1,86.4,35.8z"/>
	<path d="M191,73c-1.1-13.9-7.8-26.9-17-37.2c-7.9,7.5-15.8,15-23.5,22.7C164.5,61.3,179.9,63.1,191,73z"/>
	<path d="M126.9,72.1c1.5,1.9,4.6,1.8,6.3,0.2c4.2-3.7,7.9-7.8,11.8-11.8c-9.8-0.9-19.6-1.2-29.4,0.1
		C119.3,64.6,123.1,68.5,126.9,72.1z"/>
	<path d="M175.6,67.4c-8.7-3.6-18.1-5.4-27.4-6.7c-4.2,4.1-8.4,8.2-12.4,12.6c1.5,0.1,3,0.3,4.5,0.5c-0.1,2.6-0.1,5.2-0.2,7.9
		c-6.6,0-13.2,0-19.8,0c0-2.7,0-5.3,0-8c1.4-0.1,2.8-0.3,4.2-0.4c-3.9-4.3-7.7-9-12.6-12.2c-9.1,0.7-18.1,3-26.6,6.3
		c-4.6,2-10.5,4.9-10.8,10.7c0.7,5.1,5.6,7.9,9.9,9.8c10.6,4.6,22.2,6.5,33.7,7.3c12.6,0.9,25.3,0.4,37.8-1.5
		c8.9-1.6,18.2-3.7,25.8-8.9c2.8-1.9,5.4-5.5,4-9C183.9,71.3,179.5,69.2,175.6,67.4z"/>
	<path class="st0" d="M197.1,103.1c-4.4,1.5-8.9,4.5-9.4,9.5c1.9,0.1,3.9,0.1,5.8,0.2c-0.5,2.4-1,5-3.1,6.6
		c-14.9,13.4-29.2,27.5-44.2,40.8c-0.1-6.4,0.1-12.8,0-19.2c-0.2-2.4-0.1-5.3-2.2-7c-4.8-2.4-10.1,0.3-14.4,2.6
		c-8.4,5.2-15.9,12.1-21.4,20.4c-3.3-0.4-6.7-0.6-10.1-0.5c6.6-2.8,11.9-7.7,17.6-11.8c4.6-3.3,8.7-7.6,11.3-12.7
		c2.2-4.4,4.8-8.9,4.9-13.9c-0.1-3-1.3-6.4-4.3-7.6c-7.1-2.6-14.9-2.7-22.3-2.2c-15.8,1.6-30.6,9.1-42.6,19.3
		c-1.1,1.6-3.7,4.8-0.7,5.7c2.8-1,5.5-2.5,8.3-3.6c1.1,4.3-1,8.4-2.1,12.4c-2.2,7.2-3.6,14.5-5.2,21.8c-0.3,2.6-2.6,4-4.5,5.5
		c-6.2,4.5-13,8.2-20.1,10.9c-2.8,0.9-6.2,2.2-8.9,0.4c-2.5-1.2-1.6-4.2-1.3-6.3c1.7-9.2,5.4-17.9,8.6-26.7
		c3.8-8,8.3-15.8,12.3-23.7c4.9-9.9,13-18,16.4-28.6c1.2-2.3-1.1-4.6-3.5-4.4C55.8,91,49.7,92.9,44,95c-11.7,5.1-23.6,10.2-33,19
		c-2,1.8-0.5,4.3,0,6.4c4.2-2.7,8.7-5.5,13.9-4.7c-0.2,6.2-3.2,11.7-4.7,17.5c-5.1,15.5-9.6,31.1-13.3,46.9
		c-0.4,4.1-0.7,9.4,2.5,12.5c6.2,3.4,13.6,1.9,20.2,0.9c9.6-3,19.5-5,28.4-9.9c1.1,4.4,3,9.1,7.5,11c2.5,1.9,7,0.5,7-2.9
		c1.2-9,3.1-18,7-26.3c1.5-3,5.5-1.9,8.2-2c1,4.4-1.2,8.4-3,12.2c-2.6,5.3-3.6,11.6-1.7,17.3c1.8,3.7,6.4,4.5,10,5
		c5,0.8,9.7-1.6,13.5-4.5c5.5-4.2,10.4-10.5,9.8-17.9c-1.3,0.2-2.6,0.4-3.8,0.8c-3.9,4.8-6,11.5-12.1,14.1c-0.1-3.6,1.9-6.6,3.6-9.6
		c3.2-6.4,7.9-12.3,8.7-19.7c0.3-3.5,4.4-3.7,7-4.3c3.7,7.6,3.5,16.2,6.5,24.1c-17.5,20.2-36,39.6-52.2,61c-1.8,2.8-4.3,5.5-4.6,8.9
		c1,2.3,3.2,3.5,5.5,4c2.3-6.2,6.9-11,11-16c6.4-7.9,13.3-15.4,20-23c7.9-8.5,15.6-17.4,24.3-25.2c2.4,7.8,4.8,16.4,11.4,21.7
		c4.2,1.2,8.1-1.7,11.6-3.5c-1.7-5.5-3.7-10.9-4.8-16.6c-1.1-5.2-2.9-10.5-2-15.9c3.5-4.1,7.9-7.5,11.9-11.2
		c10.3-9.4,20.8-18.5,31.3-27.8c7.4-6.3,14.3-13.1,22-19.1c3.7-3.3,7.8-6.2,10.9-10c2.1-2.6,2.3-6.1,1.9-9.2
		C215.1,95.9,205.6,99.8,197.1,103.1z M83.5,157.3c2.7-12.6,9.7-23.6,15-35.2c3.1,0,7.1-0.2,8.7,3.1c1.1,3,0.2,6.2-0.9,9.1
		c-2,5-4.7,9.7-8,13.9C94.5,152.9,88.9,155.3,83.5,157.3z"/>
	<path class="st1" d="M50.4,131.5c-3,5.1-5.6,10.5-8,15.9c-4.4,9.1-8,18.8-9.4,28.9c8-1.7,15.3-5.6,21.8-10.5c2.3-1.7,3.3-4.5,4-7.1
		c1.8-6.6,3.6-13.3,5.1-20c-1.8-0.4-3.7-0.7-5.4-1.3c-3.9-2.1-4.5-8.2-1.4-11.2c4.5-4.8,10.3-8.2,15.5-12.2
		c-2.1-3.4-3.7-7.1-5.1-10.8c-1.6,3.1-3.4,6-5.5,8.8C57.6,118.1,54,124.8,50.4,131.5z"/>
	<path d="M106.2,134.3c1.1-2.8,1.9-6.1,0.9-9.1c-1.6-3.2-5.6-3.1-8.7-3.1c-5.3,11.6-12.2,22.6-15,35.2c5.4-2,11.1-4.4,14.8-9.1
		C101.6,144,104.2,139.3,106.2,134.3z M99.9,130.3c0.7,0.3,2,1,2.6,1.4c-0.6,1.1-1.2,2.3-1.9,3.4c-0.8-0.4-1.7-0.7-2.5-1.1
		C98.7,132.8,99.3,131.5,99.9,130.3z M92.2,147.3c1-3.5,2.5-6.8,3.9-10c0.7,0,2.2,0,2.9-0.1C97.5,141,95.4,144.6,92.2,147.3z"/>
	<path class="st0" d="M102.5,131.7c-0.7-0.3-2-1-2.6-1.4c-0.6,1.2-1.2,2.5-1.8,3.7c0.8,0.3,1.7,0.7,2.5,1.1
		C101.3,133.9,101.9,132.8,102.5,131.7z"/>
	<path class="st0" d="M151.1,149c4.9-4.2,9.9-8.4,14.2-13.2c-4.8,1.9-9.4,4.4-14.1,6.5C151.2,144.5,151.1,146.8,151.1,149z"/>
	<path class="st0" d="M96.2,137.2c-1.5,3.3-2.9,6.6-3.9,10c3.2-2.7,5.3-6.3,6.9-10.1C98.4,137.2,96.9,137.2,96.2,137.2z"/>
	<path class="st1" d="M119,172c-0.6-2.1-1.2-4.2-1.9-6.4c-0.7,1.8-1.3,3.7-1.9,5.5C116.5,171.4,117.7,171.7,119,172z"/>
</g>
</svg>
