<?xml version="1.0" encoding="UTF-8" ?>
<!DOCTYPE svg PUBLIC "-//W3C//DTD SVG 1.1//EN" "http://www.w3.org/Graphics/SVG/1.1/DTD/svg11.dtd">
<svg width="240pt" height="263pt" viewBox="0 0 240 263" version="1.1" xmlns="http://www.w3.org/2000/svg">
<path fill="#ffffff" d=" M 0.00 0.00 L 240.00 0.00 L 240.00 263.00 L 0.00 263.00 L 0.00 0.00 Z" />
<path fill="#b2b2b2" d=" M 61.13 1.81 C 64.28 4.45 67.26 7.28 70.18 10.17 C 72.82 7.58 75.43 4.95 78.21 2.51 C 78.48 6.69 78.34 10.88 78.40 15.07 C 77.87 20.19 83.07 22.85 86.10 26.08 C 97.70 16.73 112.07 10.68 127.00 9.78 C 144.10 8.92 161.14 15.10 174.21 26.04 C 177.25 23.42 180.14 20.63 182.92 17.73 C 180.43 14.76 177.90 11.83 175.54 8.75 C 180.84 8.29 186.19 8.98 191.47 8.26 C 194.52 6.80 196.62 3.97 199.07 1.73 C 201.10 3.99 203.07 6.30 204.93 8.71 C 202.76 10.94 200.33 12.97 198.52 15.52 C 197.34 20.96 198.30 26.62 197.96 32.15 C 195.27 29.43 192.65 26.65 190.02 23.87 C 186.99 26.67 184.06 29.58 181.28 32.64 C 196.37 50.44 202.08 75.80 195.18 98.21 C 203.98 94.91 213.46 91.57 222.96 93.85 C 226.06 94.43 228.16 97.07 229.24 99.87 C 230.88 103.34 228.77 107.09 227.10 110.14 C 221.63 118.64 212.35 123.39 205.09 130.13 C 201.50 133.52 197.63 136.61 194.00 139.97 C 186.33 147.69 177.55 154.18 169.64 161.65 C 163.68 167.32 156.41 171.79 151.60 178.57 C 150.59 181.87 151.98 185.40 152.35 188.74 C 153.44 196.15 156.26 203.10 159.14 209.96 C 154.99 214.48 149.38 218.09 143.05 218.04 C 140.06 217.63 136.98 216.27 135.25 213.70 C 132.16 209.47 130.17 204.59 127.74 199.98 C 123.24 205.39 117.70 209.77 113.19 215.16 C 103.47 225.82 93.58 236.35 84.72 247.75 C 82.05 251.23 80.77 255.60 77.87 258.91 C 75.66 261.55 72.12 259.41 69.56 258.48 C 65.25 256.88 63.09 251.34 65.19 247.26 C 68.96 238.59 75.79 231.84 81.55 224.51 C 87.61 217.00 94.73 210.41 100.29 202.50 C 92.31 204.31 83.31 202.11 78.09 195.55 C 74.94 198.00 71.37 200.93 67.08 200.11 C 61.59 199.42 57.99 194.80 54.72 190.82 C 43.32 194.21 32.19 199.80 20.01 199.37 C 14.80 199.29 8.44 199.66 4.82 195.15 C 2.39 191.55 1.38 186.98 1.79 182.67 C 4.54 161.74 12.81 142.15 18.41 121.93 C 15.53 123.16 12.75 124.62 9.99 126.10 C 6.17 122.77 2.34 116.72 6.05 111.98 C 11.81 106.17 19.18 102.27 26.16 98.11 C 37.25 91.26 49.75 86.28 62.86 85.38 C 61.42 75.24 63.30 65.01 66.28 55.32 C 68.93 46.87 74.34 39.73 78.96 32.30 C 76.56 30.06 74.63 27.01 71.55 25.71 C 66.34 25.08 61.05 25.66 55.82 25.23 C 58.25 22.31 60.71 19.41 63.07 16.43 C 60.52 13.93 58.00 11.41 55.53 8.83 C 57.31 6.42 59.17 4.07 61.13 1.81 Z" />
<path fill="#222222" d=" M 59.07 8.19 C 59.99 7.75 60.92 7.30 61.84 6.86 C 64.59 9.37 67.36 11.86 70.12 14.36 C 71.58 12.90 73.03 11.42 74.49 9.95 C 74.53 13.22 74.05 16.57 74.82 19.78 C 78.34 23.68 82.55 26.87 86.26 30.58 C 105.72 11.72 137.31 8.76 161.06 20.90 C 166.13 23.40 170.58 26.93 175.04 30.37 C 179.51 26.35 183.55 21.87 187.89 17.70 C 186.22 15.98 184.56 14.25 182.96 12.45 C 186.24 12.41 189.55 12.74 192.80 12.25 C 195.08 10.70 196.94 8.64 198.97 6.79 C 199.50 7.17 200.57 7.93 201.10 8.30 C 199.23 10.37 197.10 12.22 195.44 14.48 C 194.51 17.64 195.16 21.07 194.93 24.34 C 193.24 22.87 191.60 21.33 189.96 19.81 C 185.30 24.01 180.68 28.26 176.17 32.62 C 186.12 42.77 192.98 56.05 194.64 70.22 C 195.59 79.24 194.83 88.49 192.03 97.14 C 190.83 101.73 185.58 103.53 184.00 107.96 C 182.29 110.53 184.50 113.97 182.33 116.31 C 174.55 126.74 163.59 134.71 151.25 138.87 C 150.99 137.55 150.73 136.23 150.46 134.91 C 164.39 129.72 176.47 119.56 183.53 106.44 C 187.57 99.25 189.86 91.22 191.05 83.10 C 184.50 88.85 176.07 91.67 167.76 93.74 C 155.38 96.53 142.67 97.48 130.01 97.54 C 115.23 97.39 100.31 96.08 86.10 91.83 C 80.19 90.09 74.62 87.32 69.62 83.73 C 70.46 93.51 74.57 102.56 79.36 110.98 C 78.25 111.36 77.14 111.73 76.04 112.12 C 74.02 108.66 71.99 105.15 70.76 101.32 C 69.77 98.36 70.64 95.19 70.03 92.18 C 68.93 89.45 66.86 87.07 66.65 84.03 C 65.40 70.10 68.22 55.61 75.64 43.66 C 78.03 39.63 81.25 36.19 84.12 32.52 C 80.33 28.98 77.13 24.76 72.88 21.76 C 69.56 21.28 66.19 21.59 62.86 21.51 C 64.58 19.86 66.37 18.28 68.13 16.67 C 65.19 13.76 62.04 11.07 59.07 8.19 Z" />
<path fill="#b2b2b2" d=" M 88.96 33.25 C 100.63 22.75 116.15 16.13 131.99 16.77 C 146.89 16.97 160.85 23.89 171.99 33.45 C 167.18 38.80 161.84 43.64 156.84 48.81 C 153.46 51.90 150.64 55.61 146.89 58.28 C 142.58 58.64 138.26 57.88 133.95 57.72 C 127.60 57.21 121.29 58.35 114.95 58.41 C 112.92 58.64 111.67 56.81 110.32 55.64 C 104.22 49.41 98.12 43.19 91.86 37.14 C 90.80 35.94 89.36 34.87 88.96 33.25 Z" />
<path fill="#b2b2b2" d=" M 86.36 35.75 C 94.34 43.14 102.14 50.74 109.84 58.43 C 95.90 61.12 81.05 63.38 69.54 72.38 C 70.64 58.63 77.39 45.98 86.36 35.75 Z" />
<path fill="#b2b2b2" d=" M 150.57 58.46 C 158.20 50.69 166.19 43.27 174.05 35.72 C 183.27 46.04 189.90 59.04 191.02 72.96 C 179.92 63.15 164.55 61.27 150.57 58.46 Z" />
<path fill="#b2b2b2" d=" M 115.66 60.66 C 125.42 59.37 135.27 59.69 145.05 60.55 C 141.13 64.50 137.37 68.62 133.20 72.31 C 131.56 73.95 128.46 74.00 126.94 72.15 C 123.06 68.45 119.31 64.60 115.66 60.66 Z" />
<path fill="#b2b2b2" d=" M 85.23 67.18 C 93.75 63.95 102.75 61.61 111.84 60.92 C 116.73 64.18 120.51 68.85 124.44 73.17 C 123.04 73.31 121.65 73.45 120.25 73.58 C 120.22 76.24 120.21 78.90 120.21 81.57 C 126.82 81.54 133.43 81.51 140.04 81.53 C 140.10 78.91 140.14 76.29 140.21 73.67 C 138.71 73.51 137.21 73.35 135.72 73.20 C 139.73 68.88 143.98 64.79 148.16 60.65 C 157.49 61.96 166.87 63.73 175.61 67.36 C 179.45 69.24 183.94 71.29 185.56 75.57 C 186.93 79.09 184.37 82.65 181.56 84.56 C 173.96 89.81 164.72 91.86 155.78 93.50 C 143.28 95.40 130.57 95.87 117.96 94.97 C 106.49 94.20 94.89 92.33 84.29 87.71 C 80.07 85.76 75.12 82.96 74.43 77.88 C 74.68 72.12 80.62 69.21 85.23 67.18 Z" />
<path fill="#222222" d=" M 43.96 94.96 C 49.73 92.89 55.78 90.97 61.96 91.03 C 64.36 90.77 66.59 93.05 65.43 95.40 C 61.99 106.00 53.87 114.12 49.00 124.01 C 44.98 131.94 40.48 139.64 36.71 147.69 C 33.56 156.48 29.87 165.17 28.14 174.38 C 27.84 176.51 26.92 179.56 29.45 180.73 C 32.18 182.58 35.52 181.21 38.34 180.33 C 45.49 177.65 52.25 173.93 58.44 169.47 C 60.29 167.98 62.62 166.54 62.92 163.95 C 64.50 156.64 65.88 149.27 68.12 142.11 C 69.19 138.05 71.32 133.98 70.20 129.69 C 67.37 130.76 64.71 132.23 61.87 133.26 C 58.85 132.32 61.44 129.13 62.57 127.55 C 74.56 117.30 89.37 109.83 105.20 108.23 C 112.68 107.73 120.43 107.87 127.55 110.47 C 130.55 111.61 131.74 115.09 131.83 118.05 C 131.75 123.09 129.14 127.59 126.97 131.99 C 124.41 137.12 120.32 141.33 115.71 144.68 C 109.95 148.78 104.69 153.73 98.10 156.50 C 101.45 156.43 104.81 156.65 108.15 157.00 C 113.65 148.72 121.15 141.80 129.59 136.58 C 133.88 134.29 139.21 131.62 144.01 133.98 C 146.04 135.65 145.99 138.54 146.18 140.94 C 146.31 147.34 146.07 153.73 146.17 160.12 C 161.17 146.83 175.43 132.71 190.36 119.34 C 192.40 117.74 192.94 115.16 193.44 112.77 C 191.52 112.70 189.59 112.68 187.67 112.59 C 188.20 107.60 192.72 104.58 197.09 103.08 C 205.63 99.85 215.10 95.86 224.22 99.20 C 224.66 102.36 224.47 105.85 222.36 108.44 C 219.21 112.25 215.11 115.13 211.43 118.41 C 203.81 124.41 196.83 131.16 189.47 137.46 C 179.03 146.70 168.51 155.84 158.21 165.23 C 154.20 168.89 149.86 172.25 146.34 176.40 C 145.41 181.81 147.27 187.08 148.35 192.30 C 149.49 197.96 151.53 203.38 153.20 208.89 C 149.67 210.77 145.75 213.61 141.56 212.44 C 135.00 207.10 132.59 198.50 130.20 190.74 C 121.49 198.51 113.85 207.39 105.92 215.94 C 99.22 223.57 92.30 231.02 85.93 238.93 C 81.88 243.99 77.30 248.81 74.98 254.98 C 72.65 254.49 70.46 253.23 69.49 250.94 C 69.77 247.53 72.27 244.82 74.07 242.07 C 90.22 220.70 108.75 201.30 126.23 181.06 C 123.27 173.22 123.39 164.56 119.74 156.97 C 117.12 157.59 112.98 157.84 112.70 161.31 C 111.91 168.63 107.25 174.61 104.00 180.98 C 102.33 183.98 100.36 187.00 100.42 190.57 C 106.44 187.92 108.56 181.21 112.47 176.46 C 113.74 176.14 115.02 175.89 116.31 175.71 C 116.92 183.08 112.07 189.35 106.54 193.60 C 102.72 196.53 97.98 198.92 93.02 198.11 C 89.35 197.60 84.74 196.78 82.99 193.07 C 81.12 187.37 82.10 181.03 84.73 175.73 C 86.52 171.90 88.78 167.91 87.75 163.53 C 85.05 163.54 80.96 162.43 79.50 165.48 C 75.60 173.72 73.69 182.75 72.48 191.75 C 72.48 195.17 67.99 196.56 65.50 194.62 C 61.02 192.69 59.06 188.07 58.00 183.63 C 49.12 188.45 39.15 190.44 29.60 193.49 C 22.98 194.48 15.55 195.95 9.37 192.58 C 6.19 189.46 6.49 184.22 6.89 180.11 C 10.54 164.26 15.12 148.64 20.18 133.19 C 21.69 127.32 24.67 121.82 24.90 115.66 C 19.67 114.83 15.13 117.65 10.96 120.38 C 10.39 118.32 8.93 115.76 10.94 114.00 C 20.32 105.18 32.31 100.03 43.96 94.96 Z" />
<path fill="#ffffff" d=" M 62.06 111.98 C 64.14 109.19 65.96 106.22 67.58 103.14 C 69.04 106.86 70.64 110.54 72.72 113.97 C 67.50 117.96 61.71 121.32 57.20 126.16 C 54.06 129.21 54.66 135.24 58.56 137.37 C 60.28 138.05 62.13 138.31 63.94 138.70 C 62.43 145.40 60.61 152.02 58.84 158.66 C 58.11 161.31 57.13 164.10 54.80 165.77 C 48.38 170.71 41.00 174.59 33.04 176.29 C 34.42 166.19 38.02 156.53 42.41 147.38 C 44.75 141.92 47.35 136.57 50.38 131.46 C 53.95 124.79 57.59 118.11 62.06 111.98 Z" />
<path fill="#b2b2b2" d=" M 98.42 122.11 C 101.48 122.08 105.51 121.95 107.09 125.19 C 108.18 128.16 107.31 131.44 106.24 134.29 C 104.21 139.27 101.57 144.01 98.20 148.21 C 94.54 152.89 88.86 155.29 83.45 157.31 C 86.17 144.71 93.11 133.69 98.42 122.11 Z" />
<path fill="#222222" d=" M 98.17 133.99 C 98.74 132.75 99.32 131.53 99.92 130.30 C 100.57 130.64 101.87 131.32 102.52 131.66 C 101.89 132.79 101.27 133.92 100.66 135.05 C 99.83 134.69 99.00 134.34 98.17 133.99 Z" />
<path fill="#ffffff" d=" M 151.20 142.31 C 155.94 140.24 160.51 137.78 165.32 135.84 C 160.98 140.66 156.02 144.84 151.10 149.03 C 151.12 146.79 151.16 144.55 151.20 142.31 Z" />
<path fill="#ffffff" d=" M 96.17 137.23 C 96.90 137.21 98.36 137.18 99.09 137.17 C 97.51 140.96 95.41 144.59 92.23 147.27 C 93.27 143.82 94.70 140.51 96.17 137.23 Z" />
<path fill="#ffffff" d=" M 115.21 171.10 C 115.85 169.27 116.47 167.43 117.13 165.60 C 117.78 167.72 118.41 169.84 119.01 171.97 C 117.74 171.69 116.47 171.40 115.21 171.10 Z" />
</svg>
